<svg width="512" height="512" viewBox="0 0 512 512" fill="none" xmlns="http://www.w3.org/2000/svg">
<path d="M345.84 306.88C331.84 302.8 322.08 293.28 316.72 278.72C340.48 262.16 360.08 236.64 370.32 206.4C386.4 200.96 393.36 184 398.56 166.4C403.92 147.92 398.8 137.6 393.52 132.24C390.56 129.2 386.8 126.88 382.48 125.6C381.68 89.04 370.48 59.44 349.2 37.76C314.64 2.4 265.76 0.08 255.52 0C249.76 0 198.64 1.04 162.8 37.6C141.44 59.36 130.32 88.96 129.44 125.52C125.12 126.8 121.44 129.12 118.4 132.16C113.12 137.6 108 147.92 113.44 166.24C118.24 182.96 125.36 200.64 141.6 206.32C151.76 236.56 171.36 262.08 195.12 278.64C190.96 290 182.72 302 166 306.88C89.12 329.44 44.96 379.84 38.32 452.8C37.84 457.6 40.56 462.32 44.96 464.24C114.64 495.92 185.6 512 256 512C326.4 512 397.36 495.92 467.12 464.32C471.52 462.32 474.24 457.68 473.76 452.88C466.96 379.84 422.8 329.36 345.84 306.88ZM161.52 193.36C160.24 188.8 156.08 185.52 151.36 185.12C148.56 184.88 142.56 184.4 135.44 159.92C133.36 153.04 134 149.12 134.8 148.24C135.36 147.68 136.56 147.36 137.76 147.36H138.08C138.96 147.68 139.92 147.76 140.88 147.76C143.04 147.76 145.12 147.04 146.88 145.84L147.68 145.44C147.76 145.36 147.92 145.36 148 145.28C149.04 144.4 150 143.36 150.56 142.16C151.04 141.36 151.36 140.56 151.68 139.76C151.76 139.68 151.84 139.52 151.84 139.44C151.84 139.36 151.84 139.28 151.92 139.2C153.12 136.64 154 133.92 154.4 131.04C154.48 130.32 154.64 129.68 154.72 128.96C156.48 119.12 165.28 86.88 206.08 86.88C215.44 86.88 225.84 88.56 237.12 91.92C242.88 93.6 248.88 94.48 255.12 94.48C261.2 94.48 267.28 93.6 273.12 91.92C284.32 88.56 294.8 86.88 304.08 86.88C344.96 86.88 353.76 119.04 355.44 128.96C355.44 129.04 355.44 129.04 355.52 129.12C356.24 133.36 357.84 137.2 360.08 140.64V140.72L360.16 140.64C360.24 140.72 360.24 140.8 360.4 140.88V140.96C360.48 141.12 360.64 141.2 360.72 141.36C360.96 141.76 361.04 142.24 361.36 142.64C362 143.6 362.8 144.56 363.76 145.28C364.08 145.52 364.48 145.68 364.8 145.84C364.96 145.92 365.04 146.08 365.12 146.16C365.2 146.16 365.28 146.24 365.36 146.32L366.4 146.72C366.8 146.88 367.12 147.04 367.52 147.2L367.76 147.28L367.68 147.2C369.723 147.885 371.925 147.941 374 147.36C375.12 147.36 376.4 147.76 376.88 148.24C377.76 149.12 378.32 153.04 376.32 160C369.12 184.48 363.2 184.96 360.32 185.12C355.52 185.52 351.44 188.8 350.08 193.44C337.04 240.48 296.4 276.08 256 276.08C241.52 276.08 226.96 271.44 213.68 263.36C213.6 263.28 213.52 263.28 213.44 263.2C189.84 248.8 170.16 223.44 161.52 193.36ZM256 373.84C217.28 373.84 182.48 358.4 158.32 333.52C162.88 331.84 167.68 330.32 172.56 328.88C192.4 323.12 207.12 309.44 215.36 289.92C228.4 295.76 242.24 298.96 256.08 298.96C269.92 298.96 283.6 295.68 296.64 289.92C303.2 305.68 315.68 321.92 339.52 328.8C344.4 330.24 349.04 331.76 353.68 333.44C329.52 358.4 294.64 373.84 256 373.84Z" fill="#FD7B2F"/>
</svg>
