<svg width="1440" height="2966" viewBox="0 0 1440 2966" fill="none" xmlns="http://www.w3.org/2000/svg">
<g clip-path="url(#clip0_850_160)">
<rect width="1440" height="2966" fill="white"/>
<path d="M31 2229.95C31 2229.95 175 2371.75 404 2389.78C633 2407.81 689 2346.84 909.5 2229.95C1130 2113.06 1471 2229.95 1471 2229.95V2802H751H31V2229.95Z" fill="#3C3456"/>
<path d="M-1 2247.95C-1 2247.95 143 2389.75 372 2407.78C601 2425.81 657 2364.84 877.5 2247.95C1098 2131.06 1439 2247.95 1439 2247.95V2820H719H-1V2247.95Z" fill="#FD7B2F"/>
<path d="M1297.23 1472.36C1332.81 1426.39 1436.86 1429.39 1480.61 1472.36C1524.35 1515.33 1570.18 1574.78 1480.61 1624.24C1391.04 1673.71 1553.67 1720.17 1480.61 1776.13C1407.55 1832.09 1297.23 1776.13 1297.23 1776.13C1297.23 1776.13 1202.21 1682.2 1297.23 1624.24C1392.25 1566.29 1261.65 1518.32 1297.23 1472.36Z" fill="#FC985D" fill-opacity="0.19"/>
<path d="M1219.33 1647.06C1192.06 1595.72 1237.57 1502.11 1294.73 1479.89C1351.88 1457.68 1424.92 1440.36 1433.18 1542.34C1441.45 1644.32 1550.66 1515.18 1571.64 1604.78C1592.61 1694.39 1496.24 1771.95 1496.24 1771.95C1496.24 1771.95 1371.55 1819.95 1357.79 1709.5C1344.02 1599.05 1246.61 1698.39 1219.33 1647.06Z" fill="#FC985D" fill-opacity="0.19"/>
<path d="M-98.2276 1653.72C-125.5 1602.39 -79.9894 1508.78 -22.8354 1486.56C34.3186 1464.35 107.355 1447.02 115.619 1549.01C123.884 1650.99 233.102 1521.85 254.074 1611.45C275.046 1701.06 178.682 1778.61 178.682 1778.61C178.682 1778.61 53.9919 1826.62 40.2271 1716.17C26.4624 1605.72 -70.9554 1705.06 -98.2276 1653.72Z" fill="#FC985D" fill-opacity="0.19"/>
<path d="M-19.5335 1828.99C-77.143 1821.25 -126.722 1729.72 -111.48 1670.33C-96.2388 1610.94 -67.7736 1541.48 19.9323 1594.17C107.638 1646.87 66.296 1482.86 151.345 1518.02C236.394 1553.17 243.292 1676.68 243.292 1676.68C243.292 1676.68 209.668 1805.99 111.879 1752.83C14.09 1699.68 38.0761 1836.73 -19.5335 1828.99Z" fill="#FC985D" fill-opacity="0.19"/>
<path d="M-56.701 868.066C-20.2217 796.325 86.4575 801.003 131.309 868.066C176.161 935.129 223.141 1027.92 131.309 1105.12C39.4776 1182.32 206.216 1254.85 131.309 1342.18C56.4024 1429.52 -56.701 1342.18 -56.701 1342.18C-56.701 1342.18 -154.124 1195.58 -56.701 1105.12C40.7219 1014.67 -93.1803 939.807 -56.701 868.066Z" fill="#FC985D" fill-opacity="0.35"/>
<path d="M245.499 901.434C313.416 911.518 350.149 1008.94 316.459 1070.52C282.769 1132.1 230.46 1203.75 137.531 1145.61C44.601 1087.48 52.7956 1260.41 -41.3981 1220.7C-135.592 1181 -112.359 1051.61 -112.359 1051.61C-112.359 1051.61 -38.476 917.558 66.5698 976.524C171.616 1035.49 177.581 891.35 245.499 901.434Z" fill="#FC985D" fill-opacity="0.54"/>
<path d="M1276.3 142.066C1312.78 70.3255 1419.46 75.0031 1464.31 142.066C1509.16 209.129 1556.14 301.925 1464.31 379.125C1372.48 456.325 1539.22 528.845 1464.31 616.183C1389.4 703.521 1276.3 616.183 1276.3 616.183C1276.3 616.183 1178.88 469.581 1276.3 379.125C1373.72 288.668 1239.82 213.807 1276.3 142.066Z" fill="#FC985D" fill-opacity="0.35"/>
<path d="M1578.5 175.434C1646.42 185.518 1683.15 282.943 1649.46 344.524C1615.77 406.105 1563.46 477.75 1470.53 419.614C1377.6 361.477 1385.8 534.407 1291.6 494.704C1197.41 455 1220.64 325.614 1220.64 325.614C1220.64 325.614 1294.52 191.558 1399.57 250.524C1504.62 309.49 1510.58 165.35 1578.5 175.434Z" fill="#FC985D" fill-opacity="0.54"/>
</g>
<defs>
<clipPath id="clip0_850_160">
<rect width="1440" height="2966" fill="white"/>
</clipPath>
</defs>
</svg>
