<svg width="50" height="50" viewBox="0 0 50 50" fill="none" xmlns="http://www.w3.org/2000/svg">
<path d="M15.8448 49.9999C15.4278 50.0023 15.0145 49.9237 14.6284 49.7685C14.2424 49.6133 13.8913 49.3846 13.5952 49.0956L0.921366 36.6213C0.331237 36.037 0 35.2466 0 34.4227C0 33.5988 0.331237 32.8084 0.921366 32.2241L13.5952 19.7499C14.2013 19.239 14.981 18.972 15.7785 19.0023C16.5759 19.0326 17.3323 19.358 17.8966 19.9134C18.4609 20.4688 18.7915 21.2133 18.8223 21.9982C18.8531 22.7831 18.5818 23.5505 18.0627 24.1471L7.6385 34.4071L18.0627 44.6672C18.5077 45.1015 18.8117 45.656 18.9365 46.2604C19.0613 46.8648 19.0012 47.4921 18.7638 48.0629C18.5264 48.6337 18.1224 49.1224 17.6028 49.4671C17.0832 49.8119 16.4715 49.9974 15.8448 49.9999Z" fill="black"/>
<path d="M40.625 38H3.125C2.2962 38 1.50134 37.6664 0.915292 37.0725C0.329241 36.4786 0 35.6732 0 34.8333C0 33.9935 0.329241 33.188 0.915292 32.5942C1.50134 32.0003 2.2962 31.6667 3.125 31.6667H40.625C41.4538 31.6667 42.2487 31.333 42.8347 30.7392C43.4208 30.1453 43.75 29.3399 43.75 28.5V9.5C43.75 8.66015 43.4208 7.85469 42.8347 7.26083C42.2487 6.66696 41.4538 6.33333 40.625 6.33333H9.375C8.5462 6.33333 7.75134 5.9997 7.16529 5.40584C6.57924 4.81197 6.25 4.00652 6.25 3.16667C6.25 2.32681 6.57924 1.52136 7.16529 0.927496C7.75134 0.333631 8.5462 0 9.375 0H40.625C43.1114 0 45.496 1.00089 47.2541 2.78249C49.0123 4.56408 50 6.98044 50 9.5V28.5C50 31.0196 49.0123 33.4359 47.2541 35.2175C45.496 36.9991 43.1114 38 40.625 38Z" fill="black"/>
</svg>
